<?xml version="1.0" standalone="no"?>
<!DOCTYPE svg PUBLIC "-//W3C//DTD SVG 20010904//EN"
 "http://www.w3.org/TR/2001/REC-SVG-20010904/DTD/svg10.dtd">
<svg version="1.0" xmlns="http://www.w3.org/2000/svg"
 width="512.000000pt" height="347.000000pt" viewBox="0 0 512.000000 347.000000"
 preserveAspectRatio="xMidYMid meet">

<g transform="translate(0.000000,347.000000) scale(0.100000,-0.100000)"
fill="#ec4899" stroke="none">
<path d="M3603 3456 c-59 -19 -104 -49 -153 -102 -55 -60 -82 -123 -88 -206
-4 -59 -1 -74 23 -123 99 -204 399 -163 515 69 17 33 30 65 30 73 0 9 14 13
45 13 37 0 45 3 45 18 0 29 -169 222 -215 246 -49 25 -144 31 -202 12z"/>
<path d="M3268 2761 c-50 -16 -93 -50 -115 -88 -28 -50 -293 -934 -293 -978 0
-24 7 -39 23 -50 12 -8 165 -72 340 -142 302 -120 320 -128 335 -159 15 -33
15 -36 -92 -331 -58 -164 -106 -313 -106 -331 1 -103 161 -112 252 -15 57 61
289 682 290 775 0 118 -110 211 -382 318 -58 23 -109 45 -114 50 -8 8 93 367
116 413 15 30 38 19 130 -68 106 -99 137 -115 211 -115 91 0 460 133 531 192
77 63 80 133 6 171 -50 26 -100 18 -276 -46 -221 -81 -208 -81 -275 -5 -31 35
-91 108 -133 163 -111 143 -149 179 -226 214 -73 34 -172 48 -222 32z"/>
<path d="M318 2553 c-68 -43 -85 -140 -31 -183 25 -20 34 -20 1015 -20 1106 0
1047 4 1069 -68 10 -35 9 -45 -7 -78 -11 -21 -32 -47 -47 -58 -27 -20 -45 -21
-395 -26 l-366 -5 -16 -90 -16 -90 -479 -5 c-357 -4 -486 -8 -502 -17 -65 -38
-86 -131 -38 -178 l24 -25 476 0 475 0 0 -36 c0 -26 8 -43 29 -65 l29 -29 514
0 c491 0 514 1 545 20 18 10 39 33 48 51 17 33 155 768 155 827 0 24 -9 42
-29 63 l-29 29 -1199 0 c-1097 -1 -1200 -2 -1225 -17z"/>
<path d="M4335 2078 c-44 -18 -82 -33 -84 -35 -2 -1 15 -145 39 -320 l44 -317
-59 -50 c-282 -243 -392 -381 -535 -673 l-71 -143 -303 0 -303 0 -66 259 c-69
268 -74 291 -57 291 25 0 170 90 217 136 42 39 53 57 53 81 0 42 -42 76 -128
105 l-67 23 -1436 3 -1436 2 -34 -22 c-70 -47 -85 -130 -33 -179 l26 -24 799
-3 c439 -1 799 -4 799 -6 0 -2 -11 -32 -24 -67 -31 -84 -75 -299 -61 -299 2 0
39 30 82 66 153 130 282 202 413 230 131 28 277 -2 392 -79 94 -63 153 -149
275 -397 58 -118 114 -227 125 -243 l20 -27 445 2 445 3 47 120 c183 460 388
655 686 655 110 0 199 -21 300 -71 98 -47 127 -48 193 -4 l41 27 -20 45 c-62
144 -177 233 -381 293 -45 13 -86 32 -99 46 -12 13 -28 54 -39 97 l-17 75 61
12 c74 14 108 31 135 66 51 65 46 154 -12 198 -33 25 -117 51 -199 61 -44 6
-47 9 -65 50 -10 25 -20 45 -23 44 -3 0 -41 -14 -85 -31z"/>
<path d="M2062 1030 c-280 -74 -486 -345 -469 -620 23 -391 461 -541 800 -274
213 166 298 457 197 671 -90 194 -300 282 -528 223z m187 -196 c68 -20 132
-78 161 -146 19 -43 22 -65 18 -128 -6 -95 -41 -172 -110 -241 -160 -160 -396
-150 -492 21 -28 49 -31 64 -31 135 1 98 30 169 101 246 104 110 229 150 353
113z"/>
<path d="M4475 1035 c-80 -18 -127 -38 -207 -92 -174 -115 -281 -307 -281
-503 1 -374 380 -558 729 -355 67 39 182 152 223 219 50 84 82 180 88 272 22
314 -236 529 -552 459z m198 -211 c61 -31 97 -65 124 -117 55 -107 28 -265
-63 -365 -110 -123 -265 -169 -390 -117 -51 21 -110 81 -134 137 -46 106 -13
256 78 359 43 48 133 102 198 118 51 13 146 5 187 -15z"/>
</g>
</svg>
